<svg enable-background="new 0 0 84 84" viewBox="0 0 84 84" xmlns="http://www.w3.org/2000/svg"><path d="m17.9 38.1h-4.8v-4.9h5.1c1.9 0 2.8.8 2.8 2.4.1 2.1-1.4 2.5-3.1 2.5m-4.8-13.8h4.3c1.7 0 2.8.5 2.8 1.8 0 1.7-1.1 2.2-2.8 2.2h-4.3zm54.4-6.3-3.8 15.5h-.1l-3.8-15.5h-31.1v15.5c-.8-2-2.4-3.1-4.1-3.7 2-1.1 3.3-2.5 3.3-5.2s-1.5-6.6-8.4-6.6h-14.5v26.4h15c3.8 0 7.4-1.8 8.7-5.3v5.3h8.1v-10h7.4v-6.1h-7.4v-4h11.4v20.1h7.8v-16.9l4.6 16.9h6.1l4.6-16.9h.1v16.9h7.6v-26.4z" fill="#fff"/><g fill="#ed9205"><path d="m16.4 61.9h-6.6l-1.7 3.8h-2.6l7.8-16.5 7.4 16.5h-2.6zm-.9-2.2-2.3-5.3-2.4 5.3z"/><path d="m24.4 50.1v13.4h4.6v2.2h-7v-15.6z"/><path d="m36.9 53.5c-.1-.4-.4-.7-.7-1-.5-.4-1-.6-1.7-.6-1.4 0-2.2.9-2.2 1.9 0 .5.2 1.3 1.7 1.9l1.6.6c2.9 1.2 3.7 2.8 3.7 4.6 0 3-2.1 5-5 5-1.8 0-2.9-.7-3.7-1.6s-1.2-2-1.3-3l2.4-.5c0 .8.3 1.5.7 2 .4.6 1.1.9 2 .9 1.4 0 2.6-1.1 2.6-2.6 0-1.6-1.2-2.2-2.2-2.7l-1.5-.6c-1.3-.5-3.2-1.6-3.2-4 0-2.1 1.6-4.1 4.6-4.1 1.7 0 2.6.6 3.1 1.1.4.4.9.9 1.2 1.6z"/><path d="m50.8 61.9h-6.7l-1.7 3.8h-2.6l7.8-16.5 7.4 16.5h-2.6zm-.9-2.2-2.3-5.3-2.4 5.3z"/><path d="m67.6 53.7c-1.7-1.6-3.3-1.7-4.2-1.7-3.4 0-5.7 2.5-5.7 5.9 0 3.3 2.4 5.8 5.7 5.8 1.9 0 3.3-1 4.2-1.8v2.8c-1.6 1-3.2 1.3-4.3 1.3-2.8 0-4.6-1.3-5.5-2.2-1.8-1.7-2.5-3.7-2.5-5.9 0-2.9 1.2-4.9 2.5-6.1 1.6-1.5 3.5-2 5.6-2 1.4 0 2.8.3 4.2 1.1z"/><path d="m78.6 52.3h-6.2v4h6v2.2h-6v4.9h6.2v2.2h-8.6v-15.5h8.6z"/></g></svg>