<svg enable-background="new 0 0 84 84" viewBox="0 0 84 84" xmlns="http://www.w3.org/2000/svg"><path d="m0 0h84v84h-84z" fill="none"/><path d="m17.9 33.9h-4.8v-4.9h5.1c1.9 0 2.8.8 2.8 2.4.1 2-1.4 2.5-3.1 2.5m-4.8-13.8h4.3c1.7 0 2.8.5 2.8 1.8 0 1.7-1.1 2.2-2.8 2.2h-4.3zm54.3-6.3-3.8 15.5h-.1l-3.8-15.5h-31v15.5c-.8-2-2.4-3.1-4.1-3.7 2-1.1 3.3-2.5 3.3-5.2s-1.5-6.6-8.4-6.6h-14.5v26.4h15c3.8 0 7.4-1.8 8.7-5.3v5.3h8.1v-10.1h7.4v-6.1h-7.4v-4h11.4v20.1h7.7v-16.9h.1l4.6 16.9h6.1l4.6-16.9h.1v16.9h7.6v-26.3z" fill="#fff"/><path d="m14.7 69.8v-23.6h4.9c2.4 0 4.2.2 5.6.7 1.5.5 2.8 1.2 4 2.3 2.4 2.2 3.6 5.1 3.6 8.7s-1.3 6.6-3.8 8.8c-1.3 1.1-2.6 1.9-4 2.3-1.3.4-3.1.7-5.5.7h-4.8zm3.6-3.3h1.6c1.6 0 2.9-.2 4-.5 1.1-.4 2-.9 2.9-1.7 1.8-1.6 2.6-3.7 2.6-6.2 0-2.6-.9-4.7-2.6-6.3-1.6-1.4-3.9-2.2-6.9-2.2h-1.6zm21.7-20.3v23.6h-3.6v-23.6zm22.2 1.3v4.2c-2.1-1.7-4.2-2.6-6.4-2.6-2.4 0-4.5.9-6.1 2.6-1.7 1.7-2.5 3.8-2.5 6.3s.8 4.6 2.5 6.3 3.7 2.5 6.1 2.5c1.3 0 2.3-.2 3.2-.6.5-.2 1-.5 1.5-.8s1.1-.8 1.7-1.3v4.3c-2 1.2-4.2 1.7-6.4 1.7-3.4 0-6.2-1.2-8.6-3.5-2.4-2.4-3.6-5.2-3.6-8.6 0-3 1-5.7 3-8 2.4-2.9 5.6-4.3 9.5-4.3 2.1.1 4.1.7 6.1 1.8zm7.1-1.3v23.6h-3.6v-23.6z" fill="#ed8a00"/></svg>