<?xml version="1.0" encoding="utf-8"?>
<!-- Generator: Adobe Illustrator 25.2.2, SVG Export Plug-In . SVG Version: 6.00 Build 0)  -->
<svg version="1.1" id="Calque_1" xmlns="http://www.w3.org/2000/svg" xmlns:xlink="http://www.w3.org/1999/xlink" x="0px" y="0px"
	 viewBox="0 0 84 84" style="enable-background:new 0 0 84 84;" xml:space="preserve">
<style type="text/css">
	.st0{fill:none;}
	.st1{fill:#FFFFFF;}
	.st2{fill:#ED8C23;}
</style>
<rect class="st0" width="84" height="84"/>
<path class="st1" d="M17.9,40.6h-4.8v-4.9h5.1c1.9,0,2.8,0.8,2.8,2.4C21.1,40.1,19.6,40.6,17.9,40.6 M13.1,26.7h4.3
	c1.7,0,2.8,0.5,2.8,1.8c0,1.7-1.1,2.2-2.8,2.2h-4.3V26.7z M67.4,20.4L63.7,36h-0.1l-3.8-15.5H28.7V36c-0.8-2-2.4-3.1-4.1-3.7
	c2-1.1,3.3-2.5,3.3-5.2c0-2.7-1.5-6.6-8.4-6.6H5v26.4h15c3.8,0,7.4-1.8,8.7-5.3v5.3h8.1V36.8h7.4v-6.1h-7.4v-4h11.4v20.1h7.7V29.9
	H56l4.6,16.9h6.1l4.6-16.9h0.1v16.9H79V20.4H67.4z"/>
<path class="st2" d="M13.3,54v1.8c-0.9-0.7-1.8-1.1-2.7-1.1c-1,0-1.9,0.4-2.6,1.1C7.4,56.5,7,57.4,7,58.5c0,1,0.4,1.9,1.1,2.6
	c0.7,0.7,1.6,1.1,2.6,1.1c0.5,0,1-0.1,1.3-0.3c0.2-0.1,0.4-0.2,0.6-0.3c0.2-0.1,0.5-0.3,0.7-0.5v1.8c-0.9,0.5-1.8,0.7-2.7,0.7
	c-1.4,0-2.6-0.5-3.6-1.5c-1-1-1.5-2.2-1.5-3.6c0-1.3,0.4-2.4,1.3-3.4c1-1.2,2.4-1.8,4-1.8C11.7,53.3,12.5,53.5,13.3,54z M13.6,58.4
	c0-1.4,0.5-2.6,1.5-3.6c1-1,2.2-1.5,3.7-1.5c1.4,0,2.6,0.5,3.6,1.5c1,1,1.5,2.2,1.5,3.6c0,1.4-0.5,2.6-1.5,3.6c-1,1-2.3,1.5-3.7,1.5
	c-1.3,0-2.4-0.4-3.4-1.3C14.1,61.2,13.6,60,13.6,58.4z M15.1,58.4c0,1.1,0.4,2,1.1,2.7c0.7,0.7,1.6,1.1,2.5,1.1c1,0,1.9-0.4,2.6-1.1
	c0.7-0.7,1.1-1.6,1.1-2.7c0-1.1-0.4-1.9-1.1-2.7c-0.7-0.7-1.6-1.1-2.6-1.1c-1,0-1.9,0.4-2.6,1.1C15.4,56.5,15.1,57.4,15.1,58.4z
	 M16.5,51.8l2.3-2.1l2.3,2.1l-1,0.8l-1.3-1.2l-1.3,1.2L16.5,51.8z M27,54.9v8.5h-1.5v-8.5h-2.3v-1.4h6v1.4H27z M35.1,54.9h-4v2.4H35
	v1.4h-3.9V62h4v1.4h-5.5v-9.9h5.5V54.9z M38.8,63.4v-9.9h2.1c1,0,1.8,0.1,2.4,0.3c0.6,0.2,1.2,0.5,1.7,1c1,0.9,1.5,2.2,1.5,3.7
	c0,1.5-0.5,2.8-1.6,3.7c-0.5,0.5-1.1,0.8-1.7,1c-0.5,0.2-1.3,0.3-2.3,0.3H38.8z M40.3,62H41c0.7,0,1.2-0.1,1.7-0.2
	c0.4-0.1,0.8-0.4,1.2-0.7c0.7-0.7,1.1-1.5,1.1-2.6c0-1.1-0.4-2-1.1-2.6c-0.7-0.6-1.6-0.9-2.9-0.9h-0.7V62z M48.2,53l1.3,0.5
	l-1.8,3.7l-1-0.4L48.2,53z M53.9,61h-4.2l-1.1,2.4H47l4.9-10.5l4.7,10.5H55L53.9,61z M53.3,59.6l-1.5-3.4l-1.5,3.4H53.3z M58.4,62
	h4.8v1.4h-7.2l4.9-8.5h-4.1v-1.4h6.5L58.4,62z M65.2,53.5v6c0,0.9,0.1,1.5,0.4,1.9c0.4,0.6,1,0.9,1.8,0.9c0.8,0,1.3-0.3,1.8-0.9
	c0.3-0.4,0.4-1,0.4-1.9v-6H71v6.4c0,1-0.3,1.9-1,2.6c-0.7,0.8-1.6,1.1-2.7,1.1s-2-0.4-2.7-1.1c-0.7-0.7-1-1.5-1-2.6v-6.4H65.2z
	 M75.6,59.2l3.1,4.2h-1.8L74,59.3h-0.3v4.1h-1.5v-9.9H74c1.3,0,2.3,0.2,2.8,0.7c0.6,0.5,1,1.3,1,2.2c0,0.7-0.2,1.3-0.6,1.8
	C76.7,58.7,76.2,59,75.6,59.2z M73.7,58h0.5c1.4,0,2.1-0.5,2.1-1.6c0-1-0.7-1.5-2.1-1.5h-0.5V58z"/>
</svg>
