<?xml version="1.0" encoding="utf-8"?>
<!-- Generator: Adobe Illustrator 27.2.0, SVG Export Plug-In . SVG Version: 6.00 Build 0)  -->
<svg version="1.1" id="Calque_1" xmlns="http://www.w3.org/2000/svg" xmlns:xlink="http://www.w3.org/1999/xlink" x="0px" y="0px"
	 viewBox="0 0 84 84" style="enable-background:new 0 0 84 84;" xml:space="preserve">
<style type="text/css">
	.st0{fill:none;}
	.st1{fill:#FFFFFF;}
</style>
<path class="st0" d="M0,0h84v84H0V0z"/>
<path class="st1" d="M17.8,38.3H13v-4.9h5.1c1.9,0,2.9,0.8,2.9,2.4C21,37.8,19.5,38.3,17.8,38.3 M13,24.5h4.3c1.7,0,2.8,0.5,2.8,1.8
	c0,1.7-1.1,2.2-2.8,2.2H13V24.5z M67.3,18.2l-3.8,15.5h-0.1l-3.7-15.5H28.6v15.5c-0.8-2-2.4-3.1-4.1-3.7c2-1.1,3.3-2.5,3.3-5.2
	s-1.5-6.6-8.4-6.6H4.9v26.4h15c3.8,0,7.4-1.8,8.7-5.3v5.3h8.1V34.5h7.4v-6.1h-7.4v-4h11.4v20.1h7.7V27.7h0.1l4.6,16.9h6.1l4.6-16.9
	h0.1v16.9H79V18.2H67.3z"/>
<path class="st1" d="M4.9,47.7H9c1,0,2,0.1,2.8,0.4s1.5,0.8,2,1.5s0.8,1.6,0.8,2.7c0,0.9-0.2,1.6-0.5,2.2s-0.8,1.1-1.4,1.4V56
	c0.3,0.2,0.6,0.4,0.9,0.7s0.5,0.6,0.7,1s0.4,0.8,0.5,1.2c0.1,0.5,0.2,0.9,0.2,1.5c0,1.5-0.4,2.7-1.3,3.5c-0.9,0.9-2.2,1.3-3.9,1.3
	H4.9L4.9,47.7z M8.5,51.1v3.6h0.9c0.5,0,1-0.2,1.2-0.5c0.3-0.3,0.4-0.8,0.4-1.4s-0.2-1.1-0.5-1.3c-0.4-0.3-0.8-0.4-1.3-0.4L8.5,51.1
	z M8.5,58.1v3.7h0.9c1.4,0,2-0.6,2-1.8c0-0.8-0.2-1.3-0.5-1.5c-0.4-0.3-0.9-0.4-1.5-0.4H8.5z M26.8,47.7h-3.4v9.6
	c0,1.4-0.2,2.5-0.5,3.3s-1,1.1-2,1.1c-0.5,0-1-0.2-1.3-0.5s-0.5-0.7-0.7-1.2c-0.1-0.5-0.2-1.1-0.2-1.8V47.7h-3.4v11.8
	c0,1.4,0.2,2.6,0.7,3.5c0.4,0.9,1.1,1.6,1.9,2.1c0.8,0.4,1.8,0.7,2.8,0.7c1.2,0,2.2-0.3,3.1-0.8c0.9-0.5,1.6-1.3,2.1-2.3
	s0.8-2.1,0.8-3.5V47.7L26.8,47.7z M36,49.3c-0.5-0.6-1.1-1.1-1.8-1.5c-0.7-0.3-1.4-0.5-2.1-0.5c-0.8,0-1.5,0.2-2.2,0.6
	s-1.2,1.1-1.7,1.9c-0.4,0.8-0.6,1.8-0.6,2.9c0,1.4,0.2,2.5,0.7,3.3c0.5,0.7,1.1,1.3,1.8,1.6l0.5,0.3l0.5,0.3c0.4,0.2,0.7,0.4,1,0.5
	c0.6,0.4,1,0.8,1,1.4c0,0.5-0.2,0.9-0.5,1.2s-0.7,0.4-1.1,0.4c-1,0-1.7-0.5-2.3-1.4l-1.8,3.3c0.6,0.7,1.2,1.2,2,1.6
	c0.7,0.3,1.5,0.5,2.3,0.5c1.4,0,2.5-0.5,3.4-1.5c0.9-1,1.3-2.5,1.3-4.3c0-1.5-0.2-2.6-0.7-3.3s-1.1-1.3-1.8-1.6s-1.3-0.7-2-1
	c-0.6-0.3-1-0.8-1-1.4c0-0.4,0.1-0.8,0.4-1c0.3-0.3,0.6-0.4,0.9-0.4c0.4,0,0.8,0.1,1.1,0.3s0.7,0.5,1.1,1L36,49.3z M36.8,65.2h3.4
	V47.3l-3.4,1.9V65.2z M52.5,47.7H49v8.1l-7.8-8.4v17.8h3.4v-8.3l7.8,8.4V47.7z M60.2,61.5h-3.5v-3.4h3.5v-3.7h-3.5v-3H61v-3.7h-7.6
	v17.5h6.9L60.2,61.5z M69.7,49.3c-0.5-0.6-1.1-1.1-1.8-1.5c-0.7-0.3-1.4-0.5-2.1-0.5c-0.8,0-1.5,0.2-2.2,0.6
	c-0.7,0.4-1.2,1.1-1.7,1.9c-0.4,0.8-0.6,1.8-0.6,2.9c0,1.4,0.2,2.5,0.7,3.3c0.5,0.7,1.1,1.3,1.8,1.6l0.5,0.3l0.5,0.3
	c0.4,0.2,0.7,0.4,1,0.5c0.6,0.4,1,0.8,1,1.4c0,0.5-0.2,0.9-0.5,1.2c-0.4,0.3-0.7,0.4-1.1,0.4c-1,0-1.7-0.5-2.3-1.4l-1.8,3.3
	c0.6,0.7,1.2,1.2,2,1.6c0.7,0.3,1.5,0.5,2.3,0.5c1.4,0,2.5-0.5,3.4-1.5c0.9-1,1.3-2.5,1.3-4.3c0-1.5-0.2-2.6-0.7-3.3
	s-1.1-1.3-1.8-1.6s-1.3-0.7-2-1c-0.6-0.3-1-0.8-1-1.4c0-0.4,0.1-0.8,0.4-1c0.3-0.3,0.6-0.4,0.9-0.4c0.4,0,0.8,0.1,1.1,0.3
	s0.7,0.5,1.1,1L69.7,49.3z M78.6,49.3c-0.5-0.6-1.1-1.1-1.8-1.5c-0.7-0.3-1.4-0.5-2.1-0.5c-0.8,0-1.5,0.2-2.2,0.6s-1.2,1.1-1.7,1.9
	c-0.4,0.8-0.6,1.8-0.6,2.9c0,1.4,0.2,2.5,0.7,3.3c0.5,0.7,1.1,1.3,1.8,1.6l0.5,0.3l0.5,0.3c0.4,0.2,0.7,0.4,1,0.5
	c0.6,0.4,1,0.8,1,1.4c0,0.5-0.2,0.9-0.5,1.2s-0.7,0.4-1.1,0.4c-1,0-1.7-0.5-2.3-1.4L70,63.6c0.6,0.7,1.2,1.2,2,1.6
	c0.7,0.3,1.5,0.5,2.3,0.5c1.4,0,2.5-0.5,3.4-1.5c0.9-1,1.3-2.5,1.3-4.3c0-1.5-0.3-2.6-0.7-3.3c-0.5-0.7-1.1-1.3-1.8-1.6
	s-1.3-0.7-2-1c-0.6-0.3-1-0.8-1-1.4c0-0.4,0.1-0.8,0.4-1c0.3-0.3,0.6-0.4,0.9-0.4c0.4,0,0.8,0.1,1.1,0.3s0.7,0.5,1.1,1L78.6,49.3z"
	/>
</svg>
