<svg version="1.1" id="Calque_1" xmlns="http://www.w3.org/2000/svg" xmlns:xlink="http://www.w3.org/1999/xlink" x="0px" y="0px" viewBox="0 0 84 84" style="enable-background:new 0 0 84 84;" xml:space="preserve"><style type="text/css">.st0{display:none;}.st1{display:inline;fill:#1A4188;}.st2{fill:#FFFFFF;}.st3{fill:#F08700;}</style><g id="Calque_2_00000116211978832648982940000004440348347072829843_" class="st0"><rect x="324.8" y="-405.2" class="st1" width="341.3" height="309.3"/></g><g><g><path class="st2" d="M17.9,41h-4.8v-4.9h5.1c2,0,2.9,0.8,2.9,2.4C21,40.6,19.6,41,17.9,41 M13,27.2h4.4c1.7,0,2.8,0.5,2.8,1.8
			c0,1.7-1.1,2.2-2.8,2.2H13V27.2z M67.6,20.8l-3.8,15.6l0,0L60,20.8H28.7v15.6c-0.8-2-2.4-3.2-4.1-3.8c2-1.1,3.3-2.5,3.3-5.2
			s-1.5-6.6-8.5-6.6H4.9v26.5H20c3.8,0,7.5-1.8,8.8-5.3v5.3H37v-10h7.5v-6.1H37v-4h11.5v20.2h7.7v-17h0.1l4.6,17H67l4.6-17h-0.1v17
			h7.7V20.8H67.6L67.6,20.8z"/></g><g><path class="st3" d="M5.2,52.2l2.1-1.9l2.2,1.9l-0.9,0.7l-1.2-1.1l-1.2,1.1L5.2,52.2z M8,53.7V63H6.6v-9.3H8z"/><path class="st3" d="M10.4,53.7v8h2.5V63H9v-9.3H10.4z"/><path class="st3" d="M18.7,55H15v2.2h3.6v1.3H15v3.1h3.7v1.3h-5.1v-9.3h5.1V55z"/><path class="st3" d="M19.4,59.3h2.1v1.2h-2.1V59.3z"/><path class="st3" d="M22.3,63v-9.3h2c0.9,0,1.7,0.1,2.2,0.3c0.6,0.2,1.1,0.5,1.6,0.9c1,0.9,1.4,2,1.4,3.4S29,60.9,28,61.8
			c-0.5,0.4-1,0.7-1.6,0.9c-0.5,0.2-1.2,0.2-2.2,0.2L22.3,63L22.3,63z M23.7,61.7h0.6c0.6,0,1.2,0,1.6-0.2c0.4-0.1,0.8-0.3,1.1-0.7
			c0.7-0.6,1-1.5,1-2.4c0-1-0.3-1.9-1-2.5c-0.6-0.6-1.5-0.8-2.7-0.8h-0.6V61.7z"/><path class="st3" d="M35.1,55h-3.7v2.2H35v1.3h-3.6v3.1h3.7v1.3H30v-9.3h5.1V55z"/><path class="st3" d="M35.7,59.3h2.1v1.2h-2.1V59.3z"/><path class="st3" d="M43,55h-3v2.2h2.9v1.3H40v4.4h-1.4v-9.3H43V55z"/><path class="st3" d="M46.9,59l2.9,4h-1.7l-2.7-3.8h-0.2V63h-1.4v-9.3h1.7c1.2,0,2.1,0.2,2.6,0.7c0.6,0.5,0.9,1.2,0.9,2.1
			c0,0.6-0.2,1.2-0.6,1.7C48,58.7,47.5,58.8,46.9,59z M45.1,58h0.4c1.3,0,2-0.5,2-1.5c0-0.9-0.6-1.4-2-1.4H45L45.1,58L45.1,58z"/><path class="st3" d="M57.8,63v-9.3l5.9,6v-6h1.4V63l-5.9-5.9V63H57.8z"/><path class="st3" d="M73,54.2v1.7c-0.8-0.7-1.7-1-2.5-1c-1,0-1.8,0.3-2.4,1c-0.6,0.7-1,1.5-1,2.5s0.3,1.8,1,2.4
			c0.6,0.7,1.5,1,2.4,1c0.5,0,0.9-0.1,1.3-0.2c0.2-0.1,0.4-0.2,0.6-0.3c0.2-0.1,0.4-0.3,0.6-0.5v1.7c-0.8,0.4-1.6,0.6-2.5,0.6
			c-1.3,0-2.4-0.4-3.4-1.4c-0.9-0.9-1.4-2.1-1.4-3.4c0-1.2,0.4-2.2,1.2-3.2c1-1.1,2.2-1.7,3.7-1.7C71.5,53.6,72.2,53.8,73,54.2z"/><path class="st3" d="M78.8,55h-3.7v2.2h3.6v1.3h-3.6v3.1h3.7v1.3h-5.1v-9.3h5.1V55z"/><path class="st3" d="M55.4,60.8h-3.9l-1.1,2.2h-1.5l4.5-9.2l4.5,9.2h-1.5L55.4,60.8z M54.8,59.5l-1.4-2.7l-1.2,2.7H54.8z"/></g></g></svg>
