<?xml version="1.0" encoding="utf-8"?>
<!-- Generator: Adobe Illustrator 25.2.2, SVG Export Plug-In . SVG Version: 6.00 Build 0)  -->
<svg version="1.1" id="Calque_1" xmlns="http://www.w3.org/2000/svg" xmlns:xlink="http://www.w3.org/1999/xlink" x="0px" y="0px"
	 viewBox="0 0 84 84" style="enable-background:new 0 0 84 84;" xml:space="preserve">
<style type="text/css">
	.st0{fill:none;}
	.st1{fill:#FFFFFF;}
	.st2{fill:#ED8C23;}
</style>
<rect class="st0" width="84" height="84"/>
<path class="st1" d="M17.9,34.8h-4.8v-4.9h5.1c1.9,0,2.8,0.8,2.8,2.4C21.1,34.4,19.6,34.8,17.9,34.8 M13.1,21h4.3
	c1.7,0,2.8,0.5,2.8,1.8c0,1.7-1.1,2.2-2.8,2.2h-4.3V21z M67.4,14.7l-3.8,15.5h-0.1l-3.8-15.5H28.7v15.5c-0.8-2-2.4-3.1-4.1-3.7
	c2-1.1,3.3-2.5,3.3-5.2c0-2.7-1.5-6.6-8.4-6.6H5v26.4h15c3.8,0,7.4-1.8,8.7-5.3v5.3h8.1V31.1h7.4V25h-7.4v-4h11.4v20.1h7.7V24.2H56
	l4.6,16.9h6.1l4.6-16.9h0.1v16.9H79V14.7H67.4z"/>
<path class="st2" d="M18,46.1L24,61l6-14.9h3.6l-9.7,23.1l-9.4-23.1H18z M47.1,62.4h-9.2l-2.4,5.2H32l10.7-22.9l10.3,22.9h-3.6
	L47.1,62.4z M45.8,59.4l-3.2-7.3l-3.3,7.3H45.8z M62.9,58.5l6.7,9.2h-4l-6.2-8.8h-0.6v8.8h-3.2V46.1h3.8c2.8,0,4.9,0.5,6.2,1.6
	c1.4,1.2,2.1,2.8,2.1,4.7c0,1.5-0.4,2.8-1.3,3.9C65.5,57.5,64.3,58.2,62.9,58.5z M58.8,56h1c3.1,0,4.6-1.2,4.6-3.5
	c0-2.2-1.5-3.3-4.5-3.3h-1.2V56z"/>
</svg>
