<svg enable-background="new 0 0 84 84" viewBox="0 0 84 84" xmlns="http://www.w3.org/2000/svg"><path d="m0 0h84v84h-84z" fill="none"/><path d="m17.9 36.1h-4.8v-4.9h5.1c1.9 0 2.8.8 2.8 2.4.1 2-1.4 2.5-3.1 2.5m-4.8-13.8h4.3c1.7 0 2.8.5 2.8 1.8 0 1.7-1.1 2.2-2.8 2.2h-4.3zm54.3-6.3-3.8 15.5h-.1l-3.7-15.5h-31.1v15.5c-.8-2-2.4-3.1-4.1-3.7 2-1.1 3.3-2.5 3.3-5.2s-1.5-6.6-8.4-6.6h-14.5v26.4h15c3.8 0 7.4-1.8 8.7-5.3v5.3h8.1v-10.1h7.4v-6.1h-7.4v-4h11.4v20.1h7.7v-16.8h.1l4.6 16.9h6.1l4.6-16.9h.1v16.9h7.6v-26.4z" fill="#fff"/><path d="m11.2 57c0-3.6 0-11 0-11h3.4v18.9h6.8v3.1h-10.2s0-7.4 0-11zm21.8 11h10.3v-3.1h-6.8v-18.9h-3.5v11zm13.2 0h10.3v-3.1h-6.8v-18.9h-3.5v11zm-21.9 0h3.5v-22h-3.5zm35.1-22v22h12.7v-3h-9.3v-7.4h9v-3.2h-9v-5.3h9.3v-3.1z" fill="#ed8c23"/></svg>