<svg enable-background="new 0 0 84 84" viewBox="0 0 84 84" xmlns="http://www.w3.org/2000/svg"><path d="m0 0h84v84h-84z" fill="none"/><path d="m17.9 38.5h-4.8v-4.9h5.1c1.9 0 2.8.8 2.8 2.4.1 2-1.4 2.5-3.1 2.5m-4.8-13.8h4.3c1.7 0 2.8.5 2.8 1.8 0 1.7-1.1 2.2-2.8 2.2h-4.3zm54.3-6.3-3.8 15.5h-.1l-3.8-15.5h-31v15.5c-.8-2-2.4-3.1-4.1-3.7 2-1.1 3.3-2.5 3.3-5.2s-1.5-6.6-8.4-6.6h-14.5v26.4h15c3.8 0 7.4-1.8 8.7-5.3v5.3h8.1v-10h7.4v-6.1h-7.4v-4h11.4v20.1h7.7v-17h.1l4.6 16.9h6.1l4.6-16.9h.1v16.9h7.7v-26.3z" fill="#fff"/><path d="m5.1 58.3c0-2.3 0-7.6 0-7.6h2.2v12.5h4.3v2h-6.5c0 .1 0-4.6 0-6.9zm67.4 7h6.5v-2h-4.3v-12.5h-2.2v7.6zm0 0h6.5v-2h-4.3v-12.5h-2.2v7.6zm-60 0h2.2v-14.5h-2.2zm3-12.5h3.4v12.5h2.1v-12.5h3.4v-2.1h-8.9zm9.4 0h3.4v12.5h2.2v-12.5h3.4v-2.1h-8.9v2.1zm23.1 5.2c0 4.2-3.4 7.6-7.6 7.6s-7.6-3.4-7.6-7.6 3.4-7.6 7.6-7.6 7.6 3.5 7.6 7.6zm-2.1 0c0-3-2.4-5.4-5.4-5.4s-5.4 2.4-5.4 5.4 2.4 5.4 5.4 5.4c3 .1 5.4-2.3 5.4-5.4zm25.9 7.3-7-15.4-6.9 14.6s-3.7-4.9-3.9-5.3c.2 0 .4-.1.5-.1.8-.3 1.3-.7 1.8-1.3.6-.7.8-1.5.9-2.4 0-.3 0-.6-.1-1-.1-.5-.2-.9-.5-1.3-.6-1-1.5-1.6-2.6-1.8-.6-.1-1.2-.2-1.8-.3-1 0-2 0-3 0-.2 0-.3 0-.3 0v14.4h2.3v-5.9h.3l4.1 5.9h4.3l1.6-3.4h6.2l1.5 3.5zm-20.6-12.4h.3 1.1c.7.1 1.4.2 1.9.8.3.3.4.6.5.9 0 .6.1 1.2-.2 1.7-.3.4-.6.7-1.1.9-.7.3-1.5.3-2.3.3-.2 0-.2 0-.2 0 0-.7 0-1.6 0-2.3s0-1.6 0-2.3zm15.7 6.8h-4.4l2.3-4.9z" fill="#ed8c23"/></svg>