<?xml version="1.0" encoding="utf-8"?>
<!-- Generator: Adobe Illustrator 25.2.2, SVG Export Plug-In . SVG Version: 6.00 Build 0)  -->
<svg version="1.1" id="Calque_1" xmlns="http://www.w3.org/2000/svg" xmlns:xlink="http://www.w3.org/1999/xlink" x="0px" y="0px"
	 viewBox="0 0 84 84" style="enable-background:new 0 0 84 84;" xml:space="preserve">
<style type="text/css">
	.st0{fill:none;}
	.st1{fill:#FFFFFF;}
	.st2{fill:#ED8C23;}
</style>
<rect class="st0" width="84" height="84"/>
<path class="st1" d="M18.1,39.4h-4.8v-4.9h5.1c1.9,0,2.8,0.8,2.8,2.4C21.2,38.9,19.8,39.4,18.1,39.4 M13.3,25.6h4.3
	c1.7,0,2.8,0.5,2.8,1.8c0,1.7-1.1,2.2-2.8,2.2h-4.3V25.6z M67.5,19.3l-3.8,15.5h-0.1l-3.8-15.5h-31v15.5c-0.8-2-2.4-3.1-4.1-3.7
	c2-1.1,3.2-2.5,3.2-5.2c0-2.7-1.5-6.6-8.4-6.6H5.2v26.3h14.9c3.8,0,7.4-1.8,8.7-5.3v5.3h8.1v-10h7.4v-6h-7.4v-4h11.4v20.1H56V28.7
	h0.1l4.6,16.9h6l4.6-16.9h0.1v16.9H79V19.3H67.5z"/>
<path class="st2" d="M5,64.1l2.7-13.6l4.4,9.9l4.5-9.9l2.4,13.6h-2l-1.2-7.7L12,64.7l-3.6-8.2L7,64.1H5z M27.9,61h-5.4L21,64.1H19
	l6.3-13.5l6.1,13.5h-2.1L27.9,61z M27.1,59.2l-1.9-4.3l-2,4.3H27.1z M35.7,58.7l3.9,5.4h-2.3l-3.6-5.2h-0.3v5.2h-1.9V51.4h2.2
	c1.7,0,2.9,0.3,3.6,0.9c0.8,0.7,1.2,1.6,1.2,2.8c0,0.9-0.3,1.7-0.8,2.3C37.3,58.1,36.6,58.5,35.7,58.7z M33.4,57.3H34
	c1.8,0,2.7-0.7,2.7-2.1c0-1.3-0.9-1.9-2.6-1.9h-0.7V57.3z M46.7,53.3l-1.6,0.9c-0.3-0.5-0.6-0.8-0.8-1c-0.3-0.2-0.6-0.3-1.1-0.3
	c-0.5,0-1,0.2-1.3,0.5c-0.4,0.3-0.5,0.7-0.5,1.1c0,0.6,0.5,1.1,1.4,1.5l1.3,0.5c1,0.4,1.8,0.9,2.3,1.5c0.5,0.6,0.7,1.3,0.7,2.2
	c0,1.2-0.4,2.1-1.2,2.9c-0.8,0.8-1.8,1.1-2.9,1.1c-1.1,0-2-0.3-2.7-1c-0.7-0.7-1.1-1.6-1.3-2.8l1.9-0.4c0.1,0.7,0.2,1.3,0.5,1.5
	c0.4,0.5,1,0.8,1.7,0.8c0.6,0,1.1-0.2,1.5-0.6c0.4-0.4,0.6-0.9,0.6-1.5c0-0.2,0-0.5-0.1-0.7c-0.1-0.2-0.2-0.4-0.3-0.6
	c-0.1-0.2-0.3-0.3-0.6-0.5c-0.2-0.2-0.5-0.3-0.8-0.4l-1.2-0.5c-1.7-0.7-2.6-1.8-2.6-3.2c0-1,0.4-1.7,1.1-2.4c0.7-0.6,1.6-1,2.7-1
	C44.8,51.2,45.9,51.9,46.7,53.3z M54.8,53.2h-5.1v3h4.9v1.8h-4.9v4.2h5.1v1.8h-7V51.4h7V53.2z M57.7,51.4v12.7h-1.9V51.4H57.7z
	 M61.2,51.4v10.9h3.7v1.8h-5.6V51.4H61.2z M67.4,51.4v10.9h3.7v1.8h-5.6V51.4H67.4z M78.8,53.2h-5.1v3h4.9v1.8h-4.9v4.2h5.1v1.8h-7
	V51.4h7V53.2z"/>
</svg>
