<?xml version="1.0" encoding="utf-8"?>
<!-- Generator: Adobe Illustrator 26.0.3, SVG Export Plug-In . SVG Version: 6.00 Build 0)  -->
<svg version="1.1" id="Calque_1" xmlns="http://www.w3.org/2000/svg" xmlns:xlink="http://www.w3.org/1999/xlink" x="0px" y="0px"
	 viewBox="0 0 84 84" style="enable-background:new 0 0 84 84;" xml:space="preserve">
<style type="text/css">
	.st0{fill:#FFFFFF;}
	.st1{fill:#ED9205;}
</style>
<g>
	<path class="st0" d="M17.9,40.5h-4.8v-4.9h5.1c1.9,0,2.8,0.8,2.8,2.4C21.1,40.1,19.6,40.5,17.9,40.5 M13.1,26.7h4.3
		c1.7,0,2.8,0.5,2.8,1.8c0,1.7-1.1,2.2-2.8,2.2h-4.3V26.7z M67.4,20.4L63.7,36h-0.1l-3.8-15.5H28.7V36c-0.8-2-2.4-3.1-4.1-3.7
		c2-1.1,3.3-2.5,3.3-5.2c0-2.7-1.5-6.6-8.4-6.6H5v26.4h15c3.8,0,7.4-1.8,8.7-5.3v5.3h8.1V36.8h7.4v-6.1h-7.4v-4h11.4v20.1h7.7V29.9
		H56l4.6,16.9h6.1l4.6-16.9h0.1v16.9H79V20.4H67.4z"/>
	<g>
		<path class="st1" d="M5.6,63V53l6.8,7.1v-6.5h1.4v9.9l-6.8-7.1V63H5.6z"/>
		<path class="st1" d="M24.7,58.3c0,2.8-2.1,4.9-4.9,4.9S15,61.1,15,58.3c0-2.8,2.1-4.9,4.9-4.9S24.7,55.6,24.7,58.3z M23.3,58.3
			c0-2.1-1.4-3.5-3.4-3.5s-3.4,1.5-3.4,3.5s1.4,3.5,3.4,3.5S23.3,60.4,23.3,58.3z"/>
		<path class="st1" d="M27.5,53.6c1.1,0,1.9,0.1,2.5,0.5c1,0.7,1.1,1.8,1.1,2.2c0,1.3-0.8,2.3-2.1,2.6l2.9,4h-1.7l-2.7-3.8h-0.3V63
			h-1.4v-9.4H27.5z M27.2,57.9h0.4c0.4,0,2,0,2-1.5c0-1.3-1.2-1.4-2-1.4h-0.5V57.9z"/>
		<path class="st1" d="M32.3,63l2-10.1l3.3,7.3l3.3-7.3L42.6,63h-1.5l-1-5.6l-2.7,6.1l-2.7-6.1l-1,5.7H32.3z"/>
		<path class="st1" d="M49.4,60.7h-4l-1,2.3h-1.5l4.7-9.9l4.4,9.9h-1.5L49.4,60.7z M48.8,59.4l-1.4-3.2l-1.4,3.2H48.8z"/>
		<path class="st1" d="M52.4,63V53l6.8,7.1v-6.5h1.4v9.9l-6.8-7.1V63H52.4z"/>
		<path class="st1" d="M64.1,53.6c1.3,0,2.4,0.1,3.5,0.9c1.1,0.9,1.8,2.2,1.8,3.8c0,1.6-0.6,2.9-1.9,3.8c-1.1,0.8-2.1,0.9-3.4,0.9
			h-1.9v-9.4H64.1z M63.6,61.6h0.6c0.7,0,1.7-0.1,2.5-0.7c0.6-0.5,1.3-1.4,1.3-2.7c0-1.2-0.6-2.2-1.3-2.7C65.9,55,64.9,55,64.2,55
			h-0.6V61.6z"/>
		<path class="st1" d="M71.9,53.6V63h-1.4v-9.4H71.9z"/>
		<path class="st1" d="M78.6,55h-3.7v2.4h3.6v1.3h-3.6v2.9h3.7V63h-5.2v-9.4h5.2V55z"/>
	</g>
</g>
</svg>
