<svg enable-background="new 0 0 84 84" viewBox="0 0 84 84" xmlns="http://www.w3.org/2000/svg"><path d="m0 0h84v84h-84z" fill="none"/><path d="m40.5 36.2c-.3-.4-.8-.6-1.3-.6-.4 0-.8.1-1.1.4-6.9 5.7-11.8 14-14.2 24l-4.7-12.2h-3.6l7.1 17.8c-.4 3-.6 6.1-.6 9.3 0 .9.8 1.7 1.7 1.7s1.7-.8 1.7-1.7c0-15.8 5.3-28.6 14.7-36.5.8-.4.9-1.4.3-2.2z" fill="#ed8c23"/><g fill="#fff"><path d="m17.9 32.1h-4.8v-5h5.1c1.9 0 2.9.9 2.9 2.4-.1 2.1-1.5 2.6-3.2 2.6m-4.9-13.8h4.4c1.7 0 2.8.5 2.8 1.8 0 1.7-1.1 2.2-2.8 2.2h-4.4zm54.4-6.3-3.8 15.6h-.1l-3.7-15.6h-31.1v15.6c-.8-2-2.4-3.2-4.1-3.8 2-1.1 3.3-2.5 3.3-5.2s-1.5-6.6-8.4-6.6h-14.5v26.4h15c3.8 0 7.4-1.8 8.7-5.3v5.3h8.1v-10.1h7.4v-6h-7.4v-4h11.4v20.1h7.7v-16.9h.1l4.6 16.9h6l4.6-16.9h.1v16.9h7.7v-26.4z"/><path d="m10.7 47.9v20.2h6.9v3.4h-10.4v-23.6z"/><path d="m30.1 59.6c0-3.3 1.2-6.1 3.7-8.5 2.4-2.4 5.3-3.6 8.7-3.6s6.2 1.2 8.6 3.6 3.7 5.3 3.7 8.6-1.2 6.2-3.7 8.6-5.3 3.6-8.8 3.6c-3.1 0-5.7-1.1-8.2-3.2-2.7-2.3-4-5.4-4-9.1zm3.6 0c0 2.6.9 4.8 2.6 6.4 1.8 1.7 3.8 2.5 6 2.5 2.5 0 4.6-.9 6.2-2.6s2.6-3.9 2.6-6.3c0-2.5-.8-4.7-2.5-6.3s-3.8-2.6-6.2-2.6-4.6.9-6.2 2.6c-1.7 1.7-2.5 3.8-2.5 6.3z"/><path d="m56.1 71.4v-25.1l17.1 17.9v-16.3h3.6v25l-17.2-18v16.5z"/></g></svg>