<svg width="4000" height="4008" viewBox="0 0 4000 4008" fill="none" xmlns="http://www.w3.org/2000/svg">
<path d="M1710.68 0L4000 1718.75L2281.38 4007.95L0 2285.42L1710.68 0Z" fill="#0E3497"/>
<path d="M1710.65 3577.02L0 2285.42L1710.65 0.0271191V3577.02Z" fill="black"/>
<path d="M3128.08 2554C3074.78 2554 3022.67 2538.28 2978.26 2508.82C2933.85 2479.36 2899.11 2437.46 2878.4 2388.36C2857.69 2339.27 2851.92 2285.15 2861.82 2232.79C2871.71 2180.44 2896.83 2132.16 2934.03 2094C2906.3 2057.8 2889.24 2014.57 2884.8 1969.19C2880.36 1923.81 2888.7 1878.1 2908.89 1837.21C2929.08 1796.32 2960.3 1761.9 2999.04 1737.83C3037.78 1713.76 3082.48 1701 3128.08 1701C3173.69 1701 3218.39 1713.76 3257.13 1737.83C3295.86 1761.9 3327.09 1796.32 3347.28 1837.21C3367.47 1878.1 3375.81 1923.81 3371.37 1969.19C3366.93 2014.57 3349.87 2057.8 3322.14 2094C3359.38 2132.14 3384.53 2180.43 3394.44 2232.8C3404.36 2285.17 3398.6 2339.3 3377.88 2388.41C3357.16 2437.52 3322.41 2479.43 3277.97 2508.89C3233.54 2538.34 3181.4 2554.04 3128.08 2554ZM3128.08 2189.82C3109.63 2189.82 3091.6 2195.29 3076.25 2205.54C3060.91 2215.79 3048.96 2230.35 3041.89 2247.4C3034.83 2264.44 3032.99 2283.19 3036.59 2301.28C3040.19 2319.37 3049.07 2335.99 3062.12 2349.04C3075.16 2362.08 3091.79 2370.96 3109.88 2374.56C3127.98 2378.16 3146.74 2376.31 3163.78 2369.25C3180.83 2362.19 3195.4 2350.24 3205.65 2334.9C3215.9 2319.57 3221.37 2301.53 3221.37 2283.09C3221.34 2258.36 3211.5 2234.66 3194.02 2217.17C3176.53 2199.69 3152.82 2189.85 3128.08 2189.82ZM3128.08 1861.17C3111.39 1861.17 3095.07 1866.12 3081.19 1875.39C3067.31 1884.67 3056.49 1897.85 3050.1 1913.26C3043.71 1928.68 3042.04 1945.65 3045.3 1962.02C3048.56 1978.39 3056.6 1993.42 3068.4 2005.22C3080.2 2017.03 3095.24 2025.06 3111.62 2028.32C3127.99 2031.57 3144.96 2029.9 3160.38 2023.52C3175.81 2017.13 3188.99 2006.31 3198.26 1992.44C3207.54 1978.56 3212.49 1962.25 3212.49 1945.56C3212.46 1923.19 3203.56 1901.74 3187.73 1885.92C3171.91 1870.1 3150.46 1861.2 3128.08 1861.17Z" fill="white"/>
<path d="M2528.36 2554V1896.7H2395.09V1701.29H2706.05V2554H2528.36Z" fill="white"/>
<path d="M1710.66 3084.9V1598.85H2288.72V3084.87L1710.66 3084.9ZM1132.6 1598.85V1020.94H2850.28V1598.85H1132.6Z" fill="white"/>
</svg>
